<?xml version="1.0" encoding="UTF-8"?>
<svg id="Capa_1" data-name="Capa 1" xmlns="http://www.w3.org/2000/svg" viewBox="0 0 1920 1080">
  <defs>
    <style>
      .cls-1 {
        fill: none;
        stroke: #d9d800;
        stroke-miterlimit: 10;
      }
    </style>
  </defs>
  <path class="cls-1" d="M1062.55,423.34h0c-2.33,0-4.22-1.89-4.22-4.22v-59.66c0-11.29-9.15-20.44-20.44-20.44h-59.66c-2.33,0-4.22-1.89-4.22-4.22s1.89-4.22,4.22-4.22h59.66c11.29,0,20.44-9.15,20.44-20.44v-59.66c0-2.33,1.89-4.22,4.22-4.22s4.22,1.89,4.22,4.22v59.66c0,11.29,9.15,20.44,20.44,20.44h59.66c2.33,0,4.22,1.89,4.22,4.22s-1.89,4.22-4.22,4.22h-59.66c-11.29,0-20.44,9.15-20.44,20.44v59.66c0,2.33-1.89,4.22-4.22,4.22"/>
  <path class="cls-1" d="M1062.55,628.63h0c-2.33,0-4.22-1.89-4.22-4.22v-59.66c0-11.29-9.15-20.44-20.44-20.44h-59.66c-2.33,0-4.22-1.89-4.22-4.22s1.89-4.22,4.22-4.22h59.66c11.29,0,20.44-9.15,20.44-20.44v-59.66c0-2.33,1.89-4.22,4.22-4.22s4.22,1.89,4.22,4.22v59.66c0,11.29,9.15,20.44,20.44,20.44h59.66c2.33,0,4.22,1.89,4.22,4.22s-1.89,4.22-4.22,4.22h-59.66c-11.29,0-20.44,9.15-20.44,20.44v59.66c0,2.33-1.89,4.22-4.22,4.22"/>
  <path class="cls-1" d="M1062.55,833.91h0c-2.33,0-4.22-1.89-4.22-4.22v-59.66c0-11.29-9.15-20.44-20.44-20.44h-59.66c-2.33,0-4.22-1.89-4.22-4.22s1.89-4.22,4.22-4.22h59.66c11.29,0,20.44-9.15,20.44-20.44v-59.66c0-2.33,1.89-4.22,4.22-4.22s4.22,1.89,4.22,4.22v59.66c0,11.29,9.15,20.44,20.44,20.44h59.66c2.33,0,4.22,1.89,4.22,4.22s-1.89,4.22-4.22,4.22h-59.66c-11.29,0-20.44,9.15-20.44,20.44v59.66c0,2.33-1.89,4.22-4.22,4.22"/>
  <path class="cls-1" d="M857.27,423.34h0c-2.33,0-4.22-1.89-4.22-4.22v-59.66c0-11.29-9.15-20.44-20.44-20.44h-59.66c-2.33,0-4.22-1.89-4.22-4.22s1.89-4.22,4.22-4.22h59.66c11.29,0,20.44-9.15,20.44-20.44v-59.66c0-2.33,1.89-4.22,4.22-4.22s4.22,1.89,4.22,4.22v59.66c0,11.29,9.15,20.44,20.44,20.44h59.66c2.33,0,4.22,1.89,4.22,4.22s-1.89,4.22-4.22,4.22h-59.66c-11.29,0-20.44,9.15-20.44,20.44v59.66c0,2.33-1.89,4.22-4.22,4.22"/>
  <path class="cls-1" d="M857.27,628.63h0c-2.33,0-4.22-1.89-4.22-4.22v-59.66c0-11.29-9.15-20.44-20.44-20.44h-59.66c-2.33,0-4.22-1.89-4.22-4.22s1.89-4.22,4.22-4.22h59.66c11.29,0,20.44-9.15,20.44-20.44v-59.66c0-2.33,1.89-4.22,4.22-4.22s4.22,1.89,4.22,4.22v59.66c0,11.29,9.15,20.44,20.44,20.44h59.66c2.33,0,4.22,1.89,4.22,4.22s-1.89,4.22-4.22,4.22h-59.66c-11.29,0-20.44,9.15-20.44,20.44v59.66c0,2.33-1.89,4.22-4.22,4.22"/>
  <path class="cls-1" d="M857.27,833.91h0c-2.33,0-4.22-1.89-4.22-4.22v-59.66c0-11.29-9.15-20.44-20.44-20.44h-59.66c-2.33,0-4.22-1.89-4.22-4.22s1.89-4.22,4.22-4.22h59.66c11.29,0,20.44-9.15,20.44-20.44v-59.66c0-2.33,1.89-4.22,4.22-4.22s4.22,1.89,4.22,4.22v59.66c0,11.29,9.15,20.44,20.44,20.44h59.66c2.33,0,4.22,1.89,4.22,4.22s-1.89,4.22-4.22,4.22h-59.66c-11.29,0-20.44,9.15-20.44,20.44v59.66c0,2.33-1.89,4.22-4.22,4.22"/>
  <path class="cls-1" d="M1267.83,423.34h0c-2.33,0-4.22-1.89-4.22-4.22v-59.66c0-11.29-9.15-20.44-20.44-20.44h-59.66c-2.33,0-4.22-1.89-4.22-4.22s1.89-4.22,4.22-4.22h59.66c11.29,0,20.44-9.15,20.44-20.44v-59.66c0-2.33,1.89-4.22,4.22-4.22s4.22,1.89,4.22,4.22v59.66c0,11.29,9.15,20.44,20.44,20.44h59.66c2.33,0,4.22,1.89,4.22,4.22s-1.89,4.22-4.22,4.22h-59.66c-11.29,0-20.44,9.15-20.44,20.44v59.66c0,2.33-1.89,4.22-4.22,4.22"/>
  <path class="cls-1" d="M1267.83,628.63h0c-2.33,0-4.22-1.89-4.22-4.22v-59.66c0-11.29-9.15-20.44-20.44-20.44h-59.66c-2.33,0-4.22-1.89-4.22-4.22s1.89-4.22,4.22-4.22h59.66c11.29,0,20.44-9.15,20.44-20.44v-59.66c0-2.33,1.89-4.22,4.22-4.22s4.22,1.89,4.22,4.22v59.66c0,11.29,9.15,20.44,20.44,20.44h59.66c2.33,0,4.22,1.89,4.22,4.22s-1.89,4.22-4.22,4.22h-59.66c-11.29,0-20.44,9.15-20.44,20.44v59.66c0,2.33-1.89,4.22-4.22,4.22"/>
  <path class="cls-1" d="M1267.83,833.91h0c-2.33,0-4.22-1.89-4.22-4.22v-59.66c0-11.29-9.15-20.44-20.44-20.44h-59.66c-2.33,0-4.22-1.89-4.22-4.22s1.89-4.22,4.22-4.22h59.66c11.29,0,20.44-9.15,20.44-20.44v-59.66c0-2.33,1.89-4.22,4.22-4.22s4.22,1.89,4.22,4.22v59.66c0,11.29,9.15,20.44,20.44,20.44h59.66c2.33,0,4.22,1.89,4.22,4.22s-1.89,4.22-4.22,4.22h-59.66c-11.29,0-20.44,9.15-20.44,20.44v59.66c0,2.33-1.89,4.22-4.22,4.22"/>
  <path class="cls-1" d="M651.99,423.34h0c-2.33,0-4.22-1.89-4.22-4.22v-59.66c0-11.29-9.15-20.44-20.44-20.44h-59.66c-2.33,0-4.22-1.89-4.22-4.22s1.89-4.22,4.22-4.22h59.66c11.29,0,20.44-9.15,20.44-20.44v-59.66c0-2.33,1.89-4.22,4.22-4.22s4.22,1.89,4.22,4.22v59.66c0,11.29,9.15,20.44,20.44,20.44h59.66c2.33,0,4.22,1.89,4.22,4.22s-1.89,4.22-4.22,4.22h-59.66c-11.29,0-20.44,9.15-20.44,20.44v59.66c0,2.33-1.89,4.22-4.22,4.22"/>
  <path class="cls-1" d="M651.99,628.63h0c-2.33,0-4.22-1.89-4.22-4.22v-59.66c0-11.29-9.15-20.44-20.44-20.44h-59.66c-2.33,0-4.22-1.89-4.22-4.22s1.89-4.22,4.22-4.22h59.66c11.29,0,20.44-9.15,20.44-20.44v-59.66c0-2.33,1.89-4.22,4.22-4.22s4.22,1.89,4.22,4.22v59.66c0,11.29,9.15,20.44,20.44,20.44h59.66c2.33,0,4.22,1.89,4.22,4.22s-1.89,4.22-4.22,4.22h-59.66c-11.29,0-20.44,9.15-20.44,20.44v59.66c0,2.33-1.89,4.22-4.22,4.22"/>
  <path class="cls-1" d="M651.99,833.91h0c-2.33,0-4.22-1.89-4.22-4.22v-59.66c0-11.29-9.15-20.44-20.44-20.44h-59.66c-2.33,0-4.22-1.89-4.22-4.22s1.89-4.22,4.22-4.22h59.66c11.29,0,20.44-9.15,20.44-20.44v-59.66c0-2.33,1.89-4.22,4.22-4.22s4.22,1.89,4.22,4.22v59.66c0,11.29,9.15,20.44,20.44,20.44h59.66c2.33,0,4.22,1.89,4.22,4.22s-1.89,4.22-4.22,4.22h-59.66c-11.29,0-20.44,9.15-20.44,20.44v59.66c0,2.33-1.89,4.22-4.22,4.22"/>
</svg>