<?xml version="1.0" encoding="UTF-8"?>
<svg id="Capa_2" data-name="Capa 2" xmlns="http://www.w3.org/2000/svg" viewBox="0 0 99 118">
  <defs>
    <style>
      .cls-1 {
        fill: #fff;
      }

      .cls-2 {
        fill: #dbda01;
      }
    </style>
  </defs>
  <g id="Capa_1-2" data-name="Capa 1">
    <g>
      <path class="cls-1" d="M96.87,62.23c-.84-6.53-2.96-12.69-6.29-18.31-2.4-4.05-5.35-7.67-8.79-10.83-.3-.27-.34-.73-.09-1.05l2.77-3.61c.37-.48.07-1.18-.53-1.24l-18-1.94c-1.11-.12-1.95.98-1.56,2.02l.57,1.52,5.86,15.48c.21.57.97.68,1.33.2l2.03-2.64c.28-.37.82-.4,1.15-.08,6,5.81,9.83,13.42,10.92,21.87,2.63,20.31-11.72,38.97-31.98,41.6-9.81,1.27-19.53-1.36-27.37-7.41s-12.85-14.81-14.13-24.64c-1.95-15.09,5.7-30.12,19.03-37.4l.62-.34c2.26-1.23,3.09-4.07,1.86-6.33l-.68-1.24c-1.23-2.26-4.06-3.1-6.31-1.87l-.62.34c-8.37,4.57-15.13,11.48-19.55,19.98-4.52,8.71-6.25,18.47-4.99,28.24,1.64,12.68,8.11,23.97,18.21,31.78,8.44,6.52,18.57,9.96,29.06,9.96,2.07,0,4.15-.13,6.24-.41,5.25-.68,10.25-2.2,14.88-4.46,6.52-3.19,12.27-7.87,16.83-13.8,7.79-10.13,11.17-22.69,9.53-35.38h0Z"/>
      <path class="cls-1" d="M44.58,25.89h3.55c.76,0,1.37-.61,1.37-1.37v-3.56c0-5.59-4.52-10.12-10.09-10.12h-3.55c-.76,0-1.37.61-1.37,1.37v3.56c0,5.59,4.52,10.12,10.09,10.12h0Z"/>
      <path class="cls-2" d="M49.4,72.67c-1.39,0-1.78-.05-2.83-.74-.8-.52-1.86-.3-2.39.5-.52.8-.3,1.87.5,2.39,1.14.75,2,1.08,3.01,1.22v.45c0,.95.77,1.73,1.72,1.73s1.72-.77,1.72-1.73v-.64c2.18-.69,3.57-2.61,3.89-4.51.43-2.58-.96-4.91-3.47-5.79-1.32-.47-2.77-1.03-3.57-1.66-.19-.15-.26-.53-.19-.92.04-.21.22-.91.93-1.13,1.84-.56,3.44-.01,3.49,0,.89.33,1.88-.12,2.21-1.01.34-.89-.11-1.89-1-2.23-.15-.06-1.03-.37-2.3-.46v-.12c0-.95-.77-1.73-1.72-1.73s-1.72.77-1.72,1.73v.51c-1.68.53-2.94,1.97-3.28,3.78-.32,1.69.24,3.33,1.45,4.28,1.19.94,2.89,1.61,4.55,2.2,1.27.45,1.31,1.42,1.22,1.96-.15.91-.91,1.89-2.23,1.9h0Z"/>
      <path class="cls-2" d="M40.2,51.99c-4.97,3.04-8.16,8.35-8.52,14.19-.06.95.66,1.77,1.62,1.83.95.06,1.77-.67,1.83-1.62.29-4.72,2.86-9,6.87-11.45,3.29-2.01,7.15-2.62,10.89-1.71,3.74.91,6.9,3.22,8.91,6.51,4.14,6.8,1.99,15.7-4.79,19.85-6.78,4.15-15.66,2-19.8-4.8-.45-.74-.84-1.54-1.16-2.38-.34-.89-1.34-1.34-2.23-1-.89.34-1.34,1.34-1,2.23.39,1.03.88,2.02,1.44,2.95,3.36,5.52,9.25,8.57,15.27,8.57,3.17,0,6.38-.85,9.27-2.62,8.4-5.14,11.07-16.18,5.93-24.6-2.49-4.08-6.41-6.95-11.04-8.07s-9.43-.37-13.5,2.12h0Z"/>
      <path class="cls-2" d="M36.21,12.57h3.2c4.61,0,8.36,3.76,8.37,8.38v3.21h-3.2c-4.61,0-8.37-3.76-8.37-8.39v-3.2h0ZM71.89,67.26c0,12.37-10.04,22.44-22.38,22.44s-22.38-10.07-22.38-22.44,10.04-22.44,22.38-22.44,22.38,10.07,22.38,22.44ZM44.58,27.61h3.2v13.81c-13.44.89-24.11,12.14-24.11,25.84s11.59,25.9,25.83,25.9,25.83-11.62,25.83-25.9-10.67-24.94-24.11-25.84v-16.91h0v-3.57h0v-2.45h3.2c6.52,0,11.82-5.31,11.82-11.84v-3.56c0-1.71-1.39-3.1-3.09-3.1h-3.55c-.92,0-1.85.11-2.76.33-.93.22-1.5,1.15-1.28,2.08s1.15,1.5,2.08,1.28c.65-.15,1.3-.23,1.96-.23h3.2v3.2c0,4.63-3.75,8.39-8.37,8.39h-3.2v-3.2c0-1.85.59-3.6,1.7-5.06.57-.76.43-1.84-.33-2.42-.76-.58-1.84-.43-2.42.33-1.57,2.07-2.4,4.55-2.4,7.15v.75c-2.14-2.15-5.1-3.49-8.37-3.49h-3.55c-1.71,0-3.09,1.39-3.09,3.1v3.56c0,6.53,5.3,11.84,11.82,11.84h0Z"/>
      <path class="cls-2" d="M98.58,62.01c-.87-6.76-3.07-13.15-6.52-18.97-2.33-3.92-5.18-7.5-8.48-10.63l2.24-2.92c.55-.72.67-1.68.32-2.51-.35-.83-1.13-1.41-2.03-1.51l-18-1.94c-1.12-.12-2.2.34-2.89,1.24-.69.89-.86,2.06-.46,3.12l1.82,4.8c.34.89,1.34,1.34,2.22,1,.89-.34,1.34-1.34,1-2.23l-1.68-4.45,15.94,1.72-1.74,2.26c-.8,1.04-.67,2.49.3,3.38,3.32,3.04,6.17,6.56,8.48,10.44,3.21,5.41,5.25,11.35,6.07,17.65,1.27,9.82-.57,19.58-5.32,28.21-4.55,8.27-11.69,15.08-20.08,19.2-4.49,2.2-9.32,3.65-14.34,4.3-2,.26-4.02.39-6.01.39-10.19,0-19.87-3.32-28.01-9.6-9.74-7.52-15.98-18.4-17.56-30.63-1.22-9.41.44-18.83,4.81-27.22,4.26-8.2,10.78-14.86,18.84-19.26l.62-.34c.69-.38,1.48-.46,2.23-.24.75.22,1.37.72,1.74,1.41l.68,1.24c.77,1.42.25,3.21-1.17,3.98l-.62.34c-13.95,7.61-21.95,23.34-19.91,39.14,1.33,10.3,6.58,19.45,14.78,25.79,6.85,5.29,15.08,8.09,23.59,8.08,1.68,0,3.37-.11,5.06-.33,10.25-1.33,19.39-6.6,25.71-14.83,6.33-8.23,9.08-18.43,7.75-28.7-1.14-8.83-5.09-16.75-11.43-22.89-.51-.5-1.21-.75-1.92-.7-.71.05-1.36.41-1.8.97l-.99,1.29-1.63-4.31c-.34-.89-1.34-1.34-2.22-1-.89.34-1.34,1.34-1,2.23l2.23,5.91c.32.85,1.07,1.45,1.97,1.59.89.13,1.79-.23,2.34-.95l1.37-1.79c5.33,5.48,8.66,12.4,9.65,20.09,1.21,9.36-1.3,18.65-7.07,26.15-5.77,7.5-14.08,12.3-23.43,13.51-9.36,1.21-18.63-1.3-26.1-7.07s-12.26-14.12-13.47-23.5c-1.86-14.39,5.43-28.72,18.14-35.66l.62-.34c3.09-1.68,4.24-5.58,2.55-8.67l-.68-1.24c-.81-1.5-2.16-2.59-3.8-3.07-1.63-.48-3.36-.3-4.85.52l-.62.34c-8.67,4.73-15.68,11.89-20.25,20.7C.89,54.52-.89,64.63.42,74.75c1.7,13.14,8.4,24.83,18.87,32.92,8.74,6.75,19.15,10.32,30.11,10.32,2.14,0,4.32-.14,6.46-.42,5.39-.7,10.58-2.25,15.41-4.62,9.16-4.48,16.63-11.62,21.59-20.63,5.11-9.28,7.09-19.76,5.73-30.32h0Z"/>
    </g>
  </g>
</svg>