<?xml version="1.0" encoding="UTF-8"?>
<svg id="Capa_2" data-name="Capa 2" xmlns="http://www.w3.org/2000/svg" viewBox="0 0 591.99 176">
  <defs>
    <style>
      .cls-1 {
        fill: #0c4651;
      }

      .cls-1, .cls-2 {
        fill-rule: evenodd;
      }

      .cls-2 {
        fill: #dbda01;
      }
    </style>
  </defs>
  <g id="Capa_1-2" data-name="Capa 1">
    <g>
      <polygon class="cls-2" points="288.32 21.11 363.72 22.5 299.75 119.06 220.53 119.06 288.32 21.11"/>
      <polygon class="cls-2" points="455.93 21.11 531.32 22.5 467.35 119.06 388.14 119.06 455.93 21.11"/>
      <polygon class="cls-2" points="95.82 21.11 171.22 22.5 107.25 119.06 28.04 119.06 95.82 21.11"/>
      <path class="cls-1" d="M245.33,20.31c.56-.36,1.04-.84,1.4-1.4l3.12-3.12c1.66-1.75,1.66-4.5,0-6.25-1.74-1.67-4.49-1.67-6.23,0l-3.12,3.12c-2.11,1.34-2.73,4.13-1.4,6.25,1.33,2.11,4.12,2.74,6.23,1.4Z"/>
      <path class="cls-1" d="M225.94,11.46c1.69-.39,3.01-1.71,3.4-3.41V3.52c-.55-2.44-2.98-3.96-5.41-3.41-1.69.39-3.01,1.71-3.4,3.41v4.53c.55,2.44,2.98,3.96,5.41,3.41Z"/>
      <path class="cls-1" d="M246.73,50.16c-1.33-2.11-4.12-2.74-6.23-1.4-2.11,1.34-2.73,4.13-1.4,6.25.36.56.83,1.04,1.4,1.4l3.12,3.12c1.74,1.67,4.49,1.67,6.23,0,1.66-1.75,1.66-4.5,0-6.25l-3.12-3.12Z"/>
      <path class="cls-1" d="M246.2,33.55c-.55,2.44.97,4.86,3.4,5.42.66.15,1.35.15,2.01,0h4.52c2.43.56,4.85-.97,5.41-3.41.55-2.44-.97-4.86-3.4-5.42-.66-.15-1.35-.15-2.01,0h-4.52c-2.43-.56-4.85.97-5.41,3.41Z"/>
      <path class="cls-1" d="M192.2,38.97c.66.15,1.35.15,2.01,0h4.52c2.43.56,4.85-.97,5.41-3.41.55-2.44-.97-4.86-3.4-5.42-.66-.15-1.35-.15-2.01,0h-4.52c-2.43-.56-4.85.97-5.41,3.41-.55,2.44.97,4.86,3.4,5.42Z"/>
      <path class="cls-1" d="M204.64,48.76c-.56.36-1.04.84-1.4,1.4l-3.12,3.12c-1.66,1.75-1.66,4.5,0,6.25,1.74,1.67,4.49,1.67,6.23,0l3.12-3.12c2.11-1.34,2.73-4.13,1.4-6.25-1.33-2.11-4.12-2.74-6.23-1.4Z"/>
      <path class="cls-1" d="M203.24,18.92c1.29,2.14,4.06,2.83,6.2,1.54,2.14-1.29,2.82-4.07,1.54-6.21-.39-.65-.94-1.19-1.6-1.57l-3.12-3.12c-1.74-1.67-4.49-1.67-6.23,0-1.66,1.75-1.66,4.5,0,6.25l3.2,3.12h0Z"/>
      <path class="cls-1" d="M225.05,25.71c4.86.12,8.7,4.18,8.58,9.05-.12,4.87-4.17,8.72-9.03,8.6-4.77-.12-8.58-4.04-8.58-8.82.12-4.91,4.13-8.83,9.03-8.83h0ZM224.92,52.28c9.75,0,17.66-7.92,17.66-17.7v-.05c-.03-9.76-7.92-17.66-17.66-17.66s-17.66,7.92-17.66,17.7,7.9,17.7,17.66,17.7Z"/>
      <path class="cls-1" d="M223.93,71.02c2.43.56,4.85-.97,5.41-3.41.15-.66.15-1.35,0-2.01v-4.53c.55-2.44-.97-4.86-3.4-5.42s-4.85.97-5.41,3.41c-.15.66-.15,1.35,0,2.01v4.53c-.55,2.44.97,4.86,3.4,5.42Z"/>
      <path class="cls-1" d="M517.2,162.53v4.53h-44.03v-4.53c-.15-2.35,1.63-4.37,3.97-4.52.11,0,.22,0,.33,0h35.45c2.35-.03,4.27,1.85,4.3,4.2,0,.11,0,.22,0,.33ZM468.65,87.55l9.03-13.26h15.76l-9.03,13.26h-15.76ZM466.21,114.04h-15.76l12.01-17.66h15.85l.09.22-12.19,17.43h0ZM464.32,127.4h-70.49v-4.53h70.49v4.53ZM409.81,96.61h15.76l-12.01,17.43-15.8.22,12.06-17.66h0ZM424.8,74.29h15.8l-9.03,13.26h-15.8l9.03-13.26ZM439.88,52.24h15.72l-9.03,13.22h-15.72l9.03-13.22ZM457.86,25.71h15.76l-12.01,17.66h-15.76l12.01-17.66ZM457.23,65.46l9.03-13.22h15.76l-9.03,13.22h-15.76ZM451.99,96.61l-12.1,17.43h-15.76l12.01-17.66,15.85.22h0ZM442.19,87.55l9.03-13.26h15.76l-9.03,13.26h-15.76ZM500.04,25.71l-12.01,17.66h-15.76l12.01-17.66h15.76ZM526.37,25.71l-12.01,17.66h-15.76l12.15-17.66h15.63ZM499.58,80.94v68.46h-8.81v-55.46l8.81-12.99ZM499.45,65.46h-15.76l9.03-13.22h15.76l-9.03,13.22ZM345.1,167.06c-.66-.15-1.35-.15-2.01,0h-38.83v-4.53c-.15-2.35,1.63-4.37,3.97-4.52.11,0,.22,0,.33,0h35.45c2.35-.03,4.27,1.85,4.3,4.2,0,.11,0,.22,0,.33v4.53h-3.2ZM299.75,87.55l9.03-13.26h15.76l-9.03,13.26h-15.76ZM297.31,114.04h-15.76l12.01-17.66h15.85l.09.22-12.19,17.43h0ZM295.41,127.4h-70.49v-4.53h70.49v4.53ZM240.9,96.61h15.76l-12.01,17.43-15.8.22,12.06-17.66h0ZM255.89,74.29h15.8l-9.03,13.26h-15.8l9.03-13.26ZM270.98,52.24h15.72l-9.03,13.22h-15.72l9.03-13.22ZM288.95,25.71h15.76l-12.01,17.66h-15.76l12.01-17.66ZM288.32,65.46l9.03-13.22h15.76l-9.03,13.22h-15.76ZM283.08,96.61l-12.1,17.43h-15.76l12.01-17.66,15.85.22h0ZM273.28,87.55l9.03-13.26h15.76l-9.03,13.26h-15.76ZM331.13,25.71l-12.01,17.66h-15.76l12.01-17.66h15.76ZM357.46,25.71l-12.01,17.66h-15.76l12.15-17.66h15.63ZM330.68,80.94v68.46h-8.81v-55.46l8.81-12.99ZM330.54,65.46h-15.76l9.03-13.22h15.76l-9.03,13.22ZM159.6,162.53v4.53h-44.03v-4.53c-.15-2.35,1.63-4.37,3.97-4.52.11,0,.22,0,.33,0h35.45c2.35-.03,4.27,1.85,4.3,4.2,0,.11,0,.22,0,.33ZM111.06,87.55l9.03-13.26h15.76l-9.03,13.26h-15.76ZM108.62,114.04h-15.76l12.01-17.66h15.85l.09.22-12.19,17.43h0ZM106.72,127.4H36.23v-4.53h70.49v4.53ZM52.21,96.61h15.76l-12.01,17.43-15.8.22,12.06-17.66h0ZM67.21,74.29h15.8l-9.03,13.26h-15.8l9.03-13.26ZM82.29,52.24h15.72l-9.03,13.22h-15.72l9.03-13.22ZM100.27,25.71h15.76l-12.01,17.66h-15.76l12.01-17.66ZM99.63,65.46l9.03-13.22h15.76l-9.03,13.22h-15.76ZM94.39,96.61l-12.1,17.43h-15.76l12.01-17.66,15.85.22h0ZM84.59,87.55l9.03-13.26h15.76l-9.03,13.26h-15.76ZM142.44,25.71l-12.01,17.66h-15.76l12.01-17.66h15.76ZM168.77,25.71l-12.01,17.66h-15.76l12.15-17.66h15.63ZM141.99,80.94v68.46h-8.81v-55.46l8.81-12.99ZM141.86,65.46h-15.76l9.03-13.22h15.76l-9.03,13.22ZM588.49,167.06h-62.57v-4.53c0-7.25-5.86-13.13-13.09-13.13h-4.52l-.27-81,30.35-44.6c.42-.67.66-1.44.69-2.23.09-2.5-1.85-4.6-4.34-4.69h-79.21c-1.44.03-2.79.76-3.61,1.95l-66.2,97.16c-.5.74-.76,1.6-.77,2.49v13.26c0,2.5,2.02,4.53,4.52,4.53h79.21c2.49,0,4.52-2.03,4.52-4.53v-11.91l8.81-12.95v42.51h-4.56c-7.23,0-13.09,5.88-13.09,13.13v4.53h-107.31v-4.53c0-7.25-5.86-13.13-13.09-13.13h-4.52l-.27-81,30.35-44.6c.42-.67.66-1.44.69-2.23.09-2.5-1.85-4.6-4.34-4.69h-79.21c-1.44.03-2.79.76-3.61,1.95l-66.2,97.16c-.5.74-.76,1.6-.77,2.49v13.26c0,2.5,2.02,4.53,4.52,4.53h79.21c2.49,0,4.52-2.03,4.52-4.53v-11.91l8.81-12.95v42.51h-4.56c-7.23,0-13.09,5.88-13.09,13.13v4.53h-101.2c-.66-.15-1.35-.15-2.01,0h-23.88v-4.53c0-7.25-5.86-13.13-13.09-13.13h-4.52l-.27-81,30.35-44.6c.42-.67.66-1.44.69-2.23.09-2.5-1.85-4.6-4.34-4.69h-79.21c-1.44.03-2.79.76-3.61,1.95L28.12,115.99c-.5.74-.76,1.6-.77,2.49v13.26c0,2.5,2.02,4.53,4.52,4.53h79.21c2.49,0,4.52-2.03,4.52-4.53v-11.91l8.81-12.95v42.51h-4.56c-7.23,0-13.09,5.88-13.09,13.13v4.53H5.52c-.66-.15-1.35-.15-2.01,0-2.43.56-3.95,2.98-3.4,5.42.55,2.44,2.98,3.96,5.41,3.41h186.7c.64.14,1.31.15,1.99,0h148.9c.64.14,1.31.15,1.99,0h243.39c1.69-.39,3.01-1.71,3.4-3.41.55-2.44-.97-4.86-3.4-5.42h0Z"/>
    </g>
  </g>
</svg>