<?xml version="1.0" encoding="UTF-8"?>
<svg id="Capa_2" data-name="Capa 2" xmlns="http://www.w3.org/2000/svg" viewBox="0 0 139.22 120.43">
  <defs>
    <style>
      .cls-1 {
        fill: #005461;
      }

      .cls-2 {
        fill: #d7d903;
      }
    </style>
  </defs>
  <g id="Capa_1-2" data-name="Capa 1">
    <g>
      <path class="cls-2" d="M104.45,118.36H27.39c-12.51,0-22.69-10.18-22.69-22.69,0-8.17,4.43-15.65,11.34-19.65-1.04-3-1.58-6.18-1.58-9.37,0-15.69,12.76-28.45,28.45-28.45,3.53,0,7.03.66,10.29,1.92,5.96-8.05,15.48-12.93,25.61-12.93,17.49,0,31.74,14.19,31.83,31.66,6.08,1.27,11.63,4.4,15.9,9.02,5.15,5.57,7.99,12.82,7.99,20.41,0,16.58-13.49,30.07-30.07,30.07h-.01Z"/>
      <path class="cls-1" d="M43.94,87.15c-8.33,0-15.1-6.78-15.1-15.1s6.78-15.1,15.1-15.1c3.03,0,5.95.89,8.45,2.58,1.87,1.26,2.36,3.8,1.1,5.66-1.26,1.87-3.8,2.36-5.66,1.1-1.15-.77-2.49-1.18-3.88-1.18-3.83,0-6.95,3.12-6.95,6.95s3.12,6.95,6.95,6.95c1.37,0,2.46-.38,3.34-1.16.17-.15.33-.32.48-.5,1.45-1.72,4.02-1.95,5.75-.5,1.72,1.45,1.95,4.02.5,5.75-.4.48-.84.93-1.3,1.35-2.37,2.11-5.4,3.22-8.76,3.22l-.02-.02Z"/>
      <path class="cls-1" d="M103.16,103.39c-4.46,0-4.83-.12-5.37-.3-1.29-.43-2.3-1.46-2.7-2.75-.67-2.16.39-3.54,1.85-5.45,1.12-1.47,3.2-4.19,6.69-9.18,1.06-1.52,1.5-2.57,1.68-3.23l.04-.28c-.09-.79-.77-1.41-1.58-1.41-.76,0-1.42.54-1.56,1.28-.43,2.21-2.58,3.65-4.79,3.22-2.21-.43-3.65-2.58-3.22-4.79.9-4.56,4.92-7.87,9.57-7.87,5.38,0,9.75,4.37,9.75,9.75,0,.17-.01.35-.03.52l-.11.86c-.02.14-.04.27-.07.4-.46,1.97-1.44,4.01-2.99,6.23-1.34,1.91-2.48,3.5-3.44,4.83,1.14,0,2.32-.02,3.45-.03h.05c2.23,0,4.05,1.79,4.08,4.03.03,2.25-1.77,4.1-4.03,4.13-3.2.04-5.54.06-7.27.06v-.02Z"/>
      <path class="cls-1" d="M74.55,65.2c-3.83,0-6.95,3.12-6.95,6.95s3.12,6.95,6.95,6.95,6.95-3.12,6.95-6.95-3.12-6.95-6.95-6.95ZM74.55,87.25c-8.33,0-15.1-6.78-15.1-15.1s6.78-15.1,15.1-15.1,15.1,6.78,15.1,15.1-6.78,15.1-15.1,15.1Z"/>
      <path class="cls-1" d="M74.55,65.2c-3.83,0-6.95,3.12-6.95,6.95s3.12,6.95,6.95,6.95,6.95-3.12,6.95-6.95-3.12-6.95-6.95-6.95ZM74.55,87.25c-8.33,0-15.1-6.78-15.1-15.1s6.78-15.1,15.1-15.1,15.1,6.78,15.1,15.1-6.78,15.1-15.1,15.1Z"/>
      <path class="cls-1" d="M40.97,42.62c-12.32,0-22.35,10.03-22.35,22.35,0,3.6.83,7.03,2.46,10.2.54,1.04.6,2.27.17,3.36s-1.31,1.94-2.41,2.34c-6.39,2.31-10.68,8.43-10.68,15.22,0,8.92,7.26,16.18,16.18,16.18h82.63c13.28,0,24.09-10.81,24.09-24.09,0-6.08-2.27-11.89-6.4-16.35-4.1-4.44-9.67-7.16-15.66-7.65-1.1-.09-2.11-.62-2.81-1.47s-1.03-1.95-.91-3.04c.1-.95.16-1.91.16-2.87,0-14.32-11.65-25.97-25.97-25.97-9.21,0-17.82,4.95-22.46,12.92-1.11,1.9-3.52,2.58-5.46,1.54-3.23-1.74-6.88-2.66-10.58-2.66h0ZM106.97,120.42H24.33c-13.42,0-24.33-10.92-24.33-24.33,0-8.76,4.75-16.78,12.16-21.07-1.12-3.22-1.7-6.63-1.7-10.05,0-16.82,13.68-30.5,30.5-30.5,3.78,0,7.54.71,11.04,2.06,6.39-8.63,16.6-13.87,27.46-13.87,18.76,0,34.03,15.21,34.13,33.95,6.52,1.36,12.47,4.72,17.05,9.68,5.52,5.97,8.57,13.75,8.57,21.89,0,17.78-14.47,32.25-32.25,32.25h0Z"/>
      <path class="cls-1" d="M39.47,8.16c-2.25,0-4.08,1.83-4.08,4.08s1.83,4.08,4.08,4.08,4.08-1.83,4.08-4.08-1.83-4.08-4.08-4.08ZM39.47,24.47c-6.75,0-12.24-5.49-12.24-12.24S32.73,0,39.47,0s12.24,5.49,12.24,12.24-5.49,12.24-12.24,12.24h0Z"/>
      <path class="cls-1" d="M126.98,27.19c-2.25,0-4.08,1.83-4.08,4.08s1.83,4.08,4.08,4.08,4.08-1.83,4.08-4.08-1.83-4.08-4.08-4.08ZM126.98,43.5c-6.75,0-12.24-5.49-12.24-12.24s5.49-12.24,12.24-12.24,12.24,5.49,12.24,12.24-5.49,12.24-12.24,12.24Z"/>
      <path class="cls-1" d="M13.82,32.03c-.13,0-.27,0-.4-.02-.13-.01-.27-.03-.4-.06s-.26-.06-.39-.1c-.13-.04-.26-.08-.38-.14-.12-.05-.24-.11-.36-.17-.12-.06-.23-.13-.35-.2-.11-.08-.22-.16-.32-.24s-.2-.17-.3-.27c-.09-.1-.18-.19-.27-.3-.08-.1-.16-.21-.24-.32-.07-.11-.14-.23-.2-.34-.06-.12-.12-.24-.17-.36s-.1-.25-.14-.38-.07-.26-.1-.39c-.02-.13-.05-.26-.06-.39s-.02-.27-.02-.4,0-.27.02-.4c.01-.13.03-.27.06-.4.03-.13.06-.26.1-.39s.08-.25.14-.38c.05-.12.11-.24.17-.36s.13-.23.2-.34c.07-.11.16-.22.24-.32s.18-.2.27-.3c.1-.1.2-.18.3-.27.1-.08.21-.17.32-.24.11-.07.23-.14.35-.2.12-.06.24-.12.36-.17.12-.05.25-.1.38-.13.13-.04.26-.07.39-.1s.26-.05.4-.06c.27-.03.54-.03.8,0,.13.01.26.03.39.06.13.02.26.06.39.1.13.04.25.08.38.13.12.05.24.11.36.17.12.06.23.13.34.2.11.07.22.16.32.24.1.08.2.17.3.27.09.09.19.19.27.3.08.1.16.21.24.32.07.11.14.23.21.34.06.12.12.24.17.36s.1.25.14.38c.04.13.07.26.1.39.03.13.05.26.06.4.01.14.02.27.02.4s0,.27-.02.4c-.01.13-.03.26-.06.39-.03.13-.06.26-.1.39-.04.13-.08.25-.14.38-.05.12-.11.24-.17.36s-.13.23-.21.34c-.07.11-.15.22-.24.32-.08.11-.18.2-.27.3-.1.1-.2.18-.3.27-.1.08-.21.16-.32.24-.11.07-.23.14-.34.2-.12.06-.24.12-.36.17-.12.05-.25.1-.38.14-.13.04-.26.07-.39.1s-.26.05-.39.06-.27.02-.4.02Z"/>
      <path class="cls-1" d="M135.14,9.11c-.13,0-.27,0-.4-.02-.13-.01-.26-.03-.39-.06-.13-.02-.26-.06-.39-.1-.13-.04-.25-.08-.38-.13-.12-.05-.24-.11-.36-.17-.12-.06-.23-.13-.34-.2-.11-.07-.22-.15-.32-.24-.1-.09-.2-.18-.3-.27-.09-.09-.18-.19-.27-.3-.08-.1-.16-.21-.24-.32-.07-.11-.14-.23-.21-.34-.06-.12-.12-.24-.17-.36s-.1-.25-.14-.38-.07-.26-.1-.39c-.03-.13-.05-.26-.06-.4-.01-.13-.02-.27-.02-.4,0-1.07.44-2.13,1.19-2.88.1-.09.2-.18.3-.27.1-.08.21-.16.32-.24.11-.07.23-.14.34-.21.12-.06.24-.12.36-.17.12-.05.25-.1.38-.14.13-.04.26-.07.39-.1.13-.03.26-.05.39-.06,1.21-.12,2.43.32,3.28,1.17.76.76,1.2,1.81,1.2,2.88,0,.13,0,.27-.02.4-.01.13-.03.27-.06.4-.03.13-.06.26-.1.39-.04.13-.08.25-.14.38-.05.12-.11.24-.17.36-.06.12-.13.23-.2.34-.07.11-.16.22-.24.32-.08.1-.17.2-.27.3-.76.76-1.81,1.2-2.88,1.2h.02Z"/>
      <path class="cls-1" d="M89.61,12.2c-.13,0-.27,0-.4-.02-.13-.01-.27-.03-.4-.06-.13-.03-.26-.06-.39-.1s-.25-.08-.38-.14c-.13-.05-.24-.11-.36-.17-.12-.06-.23-.13-.34-.21-.11-.07-.22-.15-.32-.24-.1-.08-.2-.17-.3-.27s-.19-.2-.27-.3c-.08-.1-.17-.21-.24-.32s-.14-.23-.2-.34c-.06-.12-.12-.24-.17-.36s-.1-.25-.13-.38c-.04-.13-.07-.26-.1-.39-.03-.13-.05-.26-.06-.39s-.02-.27-.02-.4c0-1.07.43-2.12,1.2-2.88.09-.1.19-.19.3-.27.1-.08.21-.17.32-.24.11-.07.23-.14.34-.2.12-.06.24-.12.36-.17.12-.05.25-.1.38-.13.13-.04.26-.07.39-.1s.26-.05.4-.06c.27-.03.54-.03.8,0,.13.01.26.03.39.06.13.02.26.06.39.1.13.04.25.08.38.13.12.05.24.11.36.17s.23.13.34.2c.11.07.22.15.32.24.11.08.2.17.3.27.76.76,1.19,1.81,1.19,2.88,0,.13,0,.27-.02.4-.01.13-.03.26-.06.39-.03.13-.06.26-.1.39-.04.13-.08.25-.14.38-.05.12-.11.24-.17.36s-.13.23-.21.34c-.07.11-.15.22-.24.32-.08.1-.17.2-.27.3-.1.1-.2.18-.3.27-.1.08-.21.16-.32.24-.11.07-.23.14-.34.21-.12.06-.24.12-.36.17-.12.05-.25.1-.38.14s-.26.07-.39.1-.26.05-.39.06c-.13.01-.27.02-.4.02h.01Z"/>
    </g>
  </g>
</svg>