<?xml version="1.0" encoding="UTF-8"?>
<svg id="Capa_2" data-name="Capa 2" xmlns="http://www.w3.org/2000/svg" viewBox="0 0 127.69 127.69">
  <defs>
    <style>
      .cls-1 {
        fill: #d7d903;
      }

      .cls-1, .cls-2 {
        fill-rule: evenodd;
      }

      .cls-2 {
        fill: #005461;
      }
    </style>
  </defs>
  <g id="Capa_1-2" data-name="Capa 1">
    <g>
      <path class="cls-1" d="M46.21,90.9c-4.87-4.87-4.87-12.76,0-17.63s12.77-4.87,17.63,0c4.87-4.87,12.76-4.87,17.63,0s4.87,12.76,0,17.63l-11.62,11.62c-1.6,1.6-3.76,2.49-6.02,2.49s-4.42-.9-6.02-2.49l-11.62-11.62h.02Z"/>
      <path class="cls-2" d="M106.41,52.43v62.49c0,1.13-.45,2.21-1.25,3.01-.8.8-1.88,1.25-3.01,1.25H25.54c-1.13,0-2.21-.45-3.01-1.25-.8-.8-1.25-1.88-1.25-3.01v-62.49L63.85,20.42l42.56,32.02h0ZM114.92,50.31c0-1.34-.63-2.6-1.7-3.4L66.4,11.69c-1.52-1.14-3.6-1.14-5.12,0L14.47,46.91c-1.07.8-1.7,2.06-1.7,3.4v64.61c0,3.39,1.35,6.64,3.74,9.03,2.39,2.4,5.64,3.74,9.03,3.74h76.62c3.39,0,6.64-1.35,9.03-3.74,2.4-2.39,3.74-5.64,3.74-9.03V50.31h-.01Z"/>
      <path class="cls-1" d="M21.74,61.56L63.85,28.82l42.1,32.75c4.72,3.67,11.53,2.82,15.2-1.9,3.67-4.72,2.82-11.53-1.9-15.2L70.5,6.54c-3.91-3.04-9.39-3.04-13.31,0L8.44,44.46c-4.72,3.67-5.57,10.48-1.9,15.2,3.67,4.72,10.48,5.57,15.2,1.9Z"/>
      <path class="cls-2" d="M19.13,58.21c-2.86,2.23-7,1.71-9.23-1.15-2.23-2.87-1.71-7,1.15-9.23L59.81,9.9c2.38-1.85,5.7-1.85,8.08,0l48.76,37.92c2.86,2.23,3.38,6.36,1.15,9.23-2.23,2.86-6.37,3.38-9.23,1.15l-42.14-32.77c-1.54-1.17-3.67-1.16-5.19.03L19.14,58.21h0ZM24.35,64.92l39.49-30.71,39.49,30.71c6.58,5.12,16.06,3.93,21.18-2.64,5.12-6.58,3.93-16.06-2.64-21.18L73.11,3.18c-5.45-4.24-13.08-4.24-18.53,0L5.82,41.1c-6.57,5.12-7.76,14.6-2.64,21.18,5.11,6.57,14.6,7.76,21.18,2.64h0Z"/>
      <path class="cls-2" d="M49.22,87.89c-3.2-3.21-3.2-8.41,0-11.61,3.21-3.21,8.41-3.21,11.62,0,1.66,1.66,4.36,1.66,6.02,0,3.21-3.21,8.41-3.21,11.62,0,3.2,3.21,3.2,8.41,0,11.61l-11.62,11.62c-.8.8-1.88,1.25-3.01,1.25s-2.21-.45-3.01-1.25l-11.62-11.62ZM43.2,93.91l11.62,11.62c2.39,2.39,5.64,3.74,9.03,3.74s6.64-1.35,9.03-3.74l11.62-11.62c6.53-6.53,6.53-17.12,0-23.65-5.6-5.6-14.2-6.4-20.64-2.39-6.45-4.01-15.04-3.21-20.64,2.39-6.53,6.53-6.53,17.12,0,23.65h-.02Z"/>
    </g>
  </g>
</svg>