<?xml version="1.0" encoding="UTF-8"?>
<svg id="Capa_2" data-name="Capa 2" xmlns="http://www.w3.org/2000/svg" viewBox="0 0 259.01 259">
  <defs>
    <style>
      .cls-1 {
        fill: #005461;
      }

      .cls-2 {
        fill: #212222;
      }

      .cls-3 {
        fill: #fffef2;
      }
    </style>
  </defs>
  <g id="Capa_1-2" data-name="Capa 1">
    <g>
      <polygon class="cls-3" points="254.82 4.18 254.82 58.48 200.52 75.19 175.45 37.6 233.93 4.18 254.82 4.18"/>
      <path class="cls-2" d="M233.93,4.18v.09h20.89v-.17h-20.89v.09ZM175.45,37.6l.04.07L233.98,4.25l-.04-.07-.04-.07-58.48,33.42.04.07ZM200.52,75.19l.07-.05-25.07-37.59-.07.05-.07.05,25.07,37.59.07-.05ZM254.82,58.48l-.03-.08-54.31,16.71.03.08.02.08,54.31-16.71-.03-.08ZM254.82,4.18h-.08v54.31h.17V4.18h-.09ZM233.93,4.18v-.09h-.04s.04.09.04.09ZM175.45,37.6l-.04-.07-.08.05.05.08.07-.05ZM200.52,75.19l-.07.05.04.05.06-.02-.02-.08ZM254.82,58.48l.03.08.06-.02v-.06h-.09ZM254.82,4.18h.09v-.09h-.09v.09Z"/>
      <circle class="cls-3" cx="129.5" cy="187.98" r="50.13"/>
      <path class="cls-2" d="M129.5,137.86v.09c27.64,0,50.04,22.4,50.04,50.04h.17c0-27.73-22.48-50.21-50.21-50.21v.09ZM79.37,187.98h.08c0-27.64,22.4-50.04,50.04-50.04v-.17c-27.73,0-50.21,22.48-50.21,50.21h.08ZM129.5,238.11v-.09c-27.64,0-50.04-22.4-50.04-50.04h-.17c0,27.73,22.48,50.21,50.21,50.21v-.08ZM179.63,187.98h-.08c0,27.64-22.4,50.04-50.04,50.04v.17c27.73,0,50.21-22.48,50.21-50.21h-.08Z"/>
      <path class="cls-1" d="M250.64,55.4l-48.38,14.89-20.85-31.28,53.64-30.65h15.6v47.04ZM179.55,82.04l-35.3-31.77c-5.36-4.83-13.73-5.63-19.91-1.92l-15.55,9.33c-.88.53-1.88.8-2.9.8-3.11,0-5.63-2.53-5.63-5.63v-.83c0-2.15,1.19-4.08,3.12-5.04l23.3-11.65c4-2,8.73-2.43,13.02-1.21l26.25,7.5,7.24.12,21.42,32.13-14.55,8.73c-.18-.17-.32-.38-.5-.55h0ZM170.95,96.08h-.73c-1.05,0-2.07-.37-2.87-1.04l-.66-.55-21.99-18.32-5.35,6.41,21.99,18.32c.99.83,1.56,2.06,1.56,3.35,0,2.4-1.95,4.36-4.36,4.36h-.91c-1.02,0-2.01-.36-2.79-1.01l-.7-.58-21.99-18.32-5.35,6.41,21.99,18.32c.99.83,1.56,2.05,1.56,3.35,0,2.4-1.95,4.36-4.36,4.36-1.61,0-3.16-.56-4.39-1.59l-4.11-3.42c.2-.92.33-1.86.33-2.84,0-7.04-5.6-12.74-12.58-12.99-.24-6.82-5.71-12.29-12.53-12.53-.24-6.82-5.71-12.29-12.53-12.53-.25-6.97-5.96-12.58-12.99-12.58-3.48,0-6.76,1.36-9.22,3.82l-11.52,11.52c-.44.44-.81.94-1.17,1.43l-10.32-6.19,11.3-41.45,25.64-5.7c7.4-1.64,15.2-1.29,22.41,1.02l6.15,1.97-20.86,10.43c-4.77,2.39-7.73,7.18-7.73,12.52v.83c0,7.71,6.28,13.99,13.99,13.99,2.54,0,5.02-.69,7.2-2l15.55-9.33c3.1-1.87,7.32-1.46,10.02.97l35.3,31.77c.95.86,1.49,2.07,1.49,3.34,0,2.48-2.01,4.5-4.5,4.5h0ZM192.16,187.98c0,34.55-28.11,62.66-62.66,62.66s-62.66-28.11-62.66-62.66c0-24.31,13.74-45.98,35.36-56.41,1.73,2.83,4.49,4.93,7.77,5.8-20.31,7.86-34.77,27.56-34.77,50.61,0,29.95,24.36,54.31,54.31,54.31s54.31-24.36,54.31-54.31c0-24.79-16.71-45.7-39.43-52.18,1.11-1.86,1.79-4,1.82-6.32,1.33-.02,2.6-.28,3.81-.68,25.3,8.73,42.16,32.18,42.16,59.18h0ZM129.5,142.03c25.34,0,45.95,20.61,45.95,45.95s-20.61,45.95-45.95,45.95-45.95-20.61-45.95-45.95,20.61-45.95,45.95-45.95ZM133.17,123.38l3.11,2.6c.99.83,1.56,2.04,1.56,3.34,0,2.4-1.95,4.36-4.36,4.36h-.77c-1.06,0-2.09-.39-2.88-1.09l-3.12-2.76,6.46-6.45h0ZM124.82,108.61c2.58,0,4.68,2.1,4.68,4.68,0,1.25-.49,2.43-1.37,3.31l-11.52,11.52c-.89.88-2.06,1.37-3.31,1.37-2.58,0-4.68-2.1-4.68-4.68,0-1.25.49-2.43,1.37-3.31l11.52-11.52c.89-.88,2.06-1.37,3.31-1.37ZM108.97,97.45c.89-.88,2.06-1.37,3.31-1.37,2.58,0,4.68,2.1,4.68,4.68,0,1.25-.49,2.43-1.37,3.31l-11.52,11.52c-.89.88-2.06,1.37-3.31,1.37-2.58,0-4.68-2.1-4.68-4.68,0-1.25.49-2.43,1.37-3.31M96.44,84.92c.89-.88,2.06-1.37,3.31-1.37,2.58,0,4.68,2.1,4.68,4.68,0,1.25-.49,2.43-1.37,3.31l-11.52,11.52c-.89.88-2.06,1.37-3.31,1.37-2.58,0-4.68-2.1-4.68-4.68,0-1.25.49-2.43,1.37-3.31M71.02,87.22c0-1.25.49-2.43,1.37-3.31l11.52-11.52c.89-.88,2.06-1.37,3.31-1.37,2.58,0,4.68,2.1,4.68,4.68,0,1.25-.49,2.43-1.37,3.31l-11.52,11.52c-.89.88-2.06,1.37-3.31,1.37-2.58,0-4.68-2.1-4.68-4.68ZM8.36,55.56V8.36h15.45l34.04,22.69-10.55,38.67-38.94-14.16ZM232.82,0l-58.48,33.42h-6.66l-25.68-7.34c-2.02-.58-4.11-.81-6.2-.89l-18.9-6.04c-8.61-2.76-17.93-3.18-26.77-1.22l-27.67,6.16L26.33,0H0v61.41l48.32,17.57,14.38,8.63c.2,6.85,5.7,12.36,12.54,12.61.24,6.82,5.71,12.29,12.53,12.53.2,5.73,4.11,10.49,9.41,12.01-23.7,12.07-38.7,36.2-38.7,63.22,0,39.16,31.86,71.02,71.02,71.02s71.02-31.86,71.02-71.02c0-28.96-17.11-54.33-43.26-65.35.9-1.71,1.45-3.63,1.47-5.68,6.88-.09,12.46-5.66,12.53-12.55,6.94-.17,12.55-5.84,12.55-12.82,0-.47-.1-.94-.15-1.41l18.58-11.14,56.77-17.46V0h-26.18Z"/>
      <path class="cls-1" d="M125.32,217.22v8.36h8.36v-8.36c9.21,0,16.71-7.49,16.71-16.71s-7.49-16.71-16.71-16.71h-8.36c-4.61,0-8.36-3.75-8.36-8.36s3.75-8.36,8.36-8.36h8.36c4.61,0,8.36,3.75,8.36,8.36h8.36c0-9.21-7.49-16.71-16.71-16.71v-8.36h-8.36v8.36c-9.21,0-16.71,7.49-16.71,16.71s7.49,16.71,16.71,16.71h8.36c4.61,0,8.36,3.75,8.36,8.36s-3.75,8.36-8.36,8.36h-8.36c-4.61,0-8.36-3.75-8.36-8.36v-4.18h-8.36v4.18c0,9.21,7.49,16.71,16.71,16.71Z"/>
      <polygon class="cls-1" points="197.17 152.06 203.86 157.07 221.4 133.67 221.4 221.4 229.76 221.4 229.76 133.67 247.3 157.07 253.98 152.06 225.58 114.18 197.17 152.06"/>
      <rect class="cls-1" x="221.4" y="229.76" width="8.36" height="8.36"/>
      <polygon class="cls-1" points="61.83 152.06 33.42 114.18 5.02 152.06 11.7 157.07 29.24 133.67 29.24 221.4 37.6 221.4 37.6 133.67 55.14 157.07 61.83 152.06"/>
      <rect class="cls-1" x="29.24" y="229.76" width="8.36" height="8.36"/>
    </g>
  </g>
</svg>