<?xml version="1.0" encoding="UTF-8"?>
<svg id="Capa_2" data-name="Capa 2" xmlns="http://www.w3.org/2000/svg" viewBox="0 0 138.66 139.21">
  <defs>
    <style>
      .cls-1 {
        fill: #005461;
        fill-rule: evenodd;
      }

      .cls-2 {
        fill: #d7d903;
      }
    </style>
  </defs>
  <g id="Capa_1-2" data-name="Capa 1">
    <g>
      <rect class="cls-2" x="28.58" y="109.72" width="107.33" height="11.14" rx="2.96" ry="2.96"/>
      <circle class="cls-2" cx="28.14" cy="28.28" r="18.15"/>
      <path class="cls-1" d="M28.28,13.32c-8.43,0-14.95,6.8-14.95,14.95s6.53,14.95,14.95,14.95,14.68-6.8,14.68-14.95-6.53-14.95-14.68-14.95ZM69.61,76.4l-1.36,13.87h28.28l-1.36-13.87h-25.56ZM39.15,76.4l-2.72,13.87h25.01l1.63-13.87h-23.93.01ZM64.44,61.18h-22.02l-1.9,8.7h23.11l.82-8.7h-.01ZM93.53,61.18h-22.57l-.82,8.7h24.2l-.82-8.7h.01ZM123.99,69.88l-1.9-8.7h-22.02l.82,8.7h23.11-.01ZM128.07,90.27l-2.72-13.87h-23.66l1.36,13.87h25.02ZM104.41,105.5h26.92l-1.63-8.7h-26.1l.82,8.7h-.01ZM66.62,105.5h31.27l-.82-8.7h-29.64l-.82,8.7h.01ZM33.17,105.5h26.92l.82-8.7h-25.83l-1.9,8.7h-.01ZM32.36,112.02v3.26c0,1.9,1.63,3.26,3.53,3.26h92.99c1.63,0,3.26-1.36,3.26-3.26v-3.26H32.36ZM85.92,125.07h-7.34v7.61h7.34v-7.61ZM128.88,125.07h-36.43v7.61h13.05c4.35,0,4.35,6.53,0,6.53h-46.5c-4.35,0-4.35-6.53,0-6.53h13.05v-7.61h-36.16c-5.44,0-10.06-4.35-10.06-9.79l.27-7.34,10.6-50.57c.27-1.63,1.63-2.72,2.99-2.72h85.11c1.63,0,2.72,1.09,3.26,2.72l2.99,15.23,7.61,36.16v6.53c0,5.44-4.35,9.79-9.79,9.79h.01ZM10.88,15.5l-2.72-2.72c-2.99-2.99,1.63-7.61,4.62-4.35l2.72,2.45c2.72-1.9,5.98-3.26,9.52-3.81v-3.81c0-4.35,6.53-4.35,6.53,0v3.81c3.26.54,6.53,1.9,9.24,3.81l2.72-2.45c2.99-3.26,7.61,1.36,4.62,4.35l-2.72,2.72c1.9,2.72,3.26,5.98,3.81,9.52h3.81c4.35,0,4.35,6.53,0,6.53h-3.81c-.54,3.53-1.9,6.53-3.81,9.24l2.72,2.72c2.99,2.99-1.63,7.61-4.62,4.62l-2.72-2.72c-2.72,2.18-5.98,3.53-9.24,4.08v3.53c0,4.35-6.53,4.35-6.53,0v-3.53c-3.53-.54-6.8-1.9-9.52-4.08-1.63,1.9-4.35,5.44-7.34,2.72-1.09-1.36-1.09-3.26,0-4.62l2.72-2.72c-1.9-2.72-3.26-5.71-3.81-9.24h-3.81c-4.35,0-4.35-6.53,0-6.53h3.81c.54-3.53,1.9-6.8,3.81-9.52Z"/>
    </g>
  </g>
</svg>