<?xml version="1.0" encoding="UTF-8"?>
<svg id="Capa_2" data-name="Capa 2" xmlns="http://www.w3.org/2000/svg" xmlns:xlink="http://www.w3.org/1999/xlink" viewBox="0 0 391.97 391.97">
  <defs>
    <style>
      .cls-1 {
        fill: none;
      }

      .cls-2 {
        fill: #fffdf1;
      }

      .cls-3 {
        fill: #0c4651;
      }

      .cls-4 {
        clip-path: url(#clippath);
      }

      .cls-5 {
        fill: #dbda01;
      }
    </style>
    <clipPath id="clippath">
      <circle class="cls-1" cx="195.98" cy="195.98" r="148.79" transform="translate(-81.18 195.98) rotate(-45)"/>
    </clipPath>
  </defs>
  <g id="Capa_1-2" data-name="Capa 1">
    <g>
      <circle class="cls-5" cx="195.98" cy="195.98" r="148.79" transform="translate(-81.18 195.98) rotate(-45)"/>
      <g class="cls-4">
        <path class="cls-2" d="M195.98,47.19v5c79.41,0,143.79,64.38,143.79,143.79h10c0-84.94-68.85-153.79-153.79-153.79v5ZM47.19,195.98h5c0-79.41,64.38-143.79,143.79-143.79v-10c-84.94,0-153.79,68.85-153.79,153.79h5ZM195.98,344.77v-5c-79.41,0-143.79-64.38-143.79-143.79h-10c0,84.94,68.85,153.79,153.79,153.79v-5ZM344.77,195.98h-5c0,79.41-64.38,143.79-143.79,143.79v10c84.94,0,153.79-68.85,153.79-153.79h-5Z"/>
      </g>
      <path class="cls-5" d="M376.89,201.5l14.99.45c.06-1.98.09-3.97.09-5.96h-30c0,1.7-.03,3.38-.08,5.07l14.99.45ZM366.38,257.14l14.12,5.07c1.34-3.73,2.57-7.51,3.68-11.34l-14.4-4.19-14.4-4.19c-.94,3.24-1.98,6.44-3.11,9.59l14.12,5.07ZM339.11,306.77l11.86,9.19c2.43-3.14,4.77-6.35,7.01-9.63l-12.39-8.45-12.39-8.45c-1.9,2.78-3.88,5.51-5.94,8.16l11.86,9.19ZM297.87,345.59l8.45,12.39c3.28-2.24,6.5-4.58,9.63-7.01l-9.19-11.86-9.19-11.86c-2.66,2.06-5.38,4.04-8.16,5.94l8.45,12.39ZM246.67,369.77l4.19,14.4c3.83-1.11,7.61-2.34,11.34-3.68l-5.07-14.12-5.07-14.12c-3.15,1.13-6.35,2.17-9.59,3.11l4.19,14.4ZM195.98,376.97v15c1.99,0,3.98-.03,5.96-.09l-.45-14.99-.45-14.99c-1.68.05-3.37.08-5.07.08v15ZM190.47,376.89l-.45,14.99c1.98.06,3.97.09,5.96.09v-30c-1.7,0-3.38-.03-5.07-.08l-.45,14.99ZM134.83,366.38l-5.07,14.12c3.73,1.34,7.51,2.57,11.34,3.68l4.19-14.4,4.19-14.4c-3.24-.94-6.44-1.98-9.59-3.11l-5.07,14.12ZM85.2,339.11l-9.19,11.86c3.14,2.43,6.35,4.77,9.63,7.01l8.45-12.39,8.45-12.39c-2.78-1.9-5.51-3.88-8.16-5.94l-9.19,11.86ZM46.38,297.87l-12.39,8.45c2.24,3.28,4.58,6.5,7.01,9.63l11.86-9.19,11.86-9.19c-2.06-2.66-4.04-5.38-5.94-8.16l-12.39,8.45ZM22.19,246.67l-14.4,4.19c1.11,3.83,2.34,7.61,3.68,11.34l14.12-5.07,14.12-5.07c-1.13-3.15-2.17-6.35-3.11-9.59l-14.4,4.19ZM15,195.98H0c0,1.99.03,3.98.09,5.96l14.99-.45,14.99-.45c-.05-1.68-.08-3.37-.08-5.07h-15ZM15.08,190.47l-14.99-.45c-.06,1.98-.09,3.97-.09,5.96h30c0-1.7.03-3.38.08-5.07l-14.99-.45ZM25.59,134.83l-14.12-5.07c-1.34,3.73-2.57,7.51-3.68,11.34l14.4,4.19,14.4,4.19c.94-3.24,1.98-6.44,3.11-9.59l-14.12-5.07ZM52.86,85.2l-11.86-9.19c-2.43,3.14-4.77,6.35-7.01,9.63l12.39,8.45,12.39,8.45c1.9-2.78,3.88-5.51,5.94-8.16l-11.86-9.19ZM94.1,46.38l-8.45-12.39c-3.28,2.24-6.5,4.58-9.63,7.01l9.19,11.86,9.19,11.86c2.66-2.06,5.38-4.04,8.16-5.94l-8.45-12.39ZM145.3,22.19l-4.19-14.4c-3.83,1.11-7.61,2.34-11.34,3.68l5.07,14.12,5.07,14.12c3.15-1.13,6.35-2.17,9.59-3.11l-4.19-14.4ZM195.98,15V0c-1.99,0-3.98.03-5.96.09l.45,14.99.45,14.99c1.68-.05,3.37-.08,5.07-.08v-15ZM201.5,15.08l.45-14.99c-1.98-.06-3.97-.09-5.96-.09v30c1.7,0,3.38.03,5.07.08l.45-14.99ZM257.14,25.59l5.07-14.12c-3.73-1.34-7.51-2.57-11.34-3.68l-4.19,14.4-4.19,14.4c3.24.94,6.44,1.98,9.59,3.11l5.07-14.12ZM306.77,52.86l9.19-11.86c-3.14-2.43-6.35-4.77-9.63-7.01l-8.45,12.39-8.45,12.39c2.78,1.9,5.51,3.88,8.16,5.94l9.19-11.86ZM345.59,94.1l12.39-8.45c-2.24-3.28-4.58-6.5-7.01-9.63l-11.86,9.19-11.86,9.19c2.06,2.66,4.04,5.38,5.94,8.16l12.39-8.45ZM369.77,145.3l14.4-4.19c-1.11-3.83-2.34-7.61-3.68-11.34l-14.12,5.07-14.12,5.07c1.13,3.15,2.17,6.35,3.11,9.59l14.4-4.19ZM376.97,195.98h15c0-1.99-.03-3.98-.09-5.96l-14.99.45-14.99.45c.05,1.68.08,3.37.08,5.07h15Z"/>
      <path class="cls-3" d="M275.77,195.98c0,2.1-1.7,3.8-3.8,3.8h-53.79c-10.17,0-18.42,8.25-18.42,18.42v53.79c0,2.1-1.7,3.8-3.8,3.8s-3.8-1.7-3.8-3.8v-53.79c0-10.17-8.25-18.42-18.42-18.42h-53.79c-2.1,0-3.8-1.7-3.8-3.8s1.7-3.8,3.8-3.8h53.79c10.18,0,18.42-8.25,18.42-18.42v-53.79c0-2.1,1.7-3.8,3.8-3.8s3.8,1.7,3.8,3.8v53.79c0,10.18,8.25,18.42,18.42,18.42h53.79c2.1,0,3.8,1.7,3.8,3.8Z"/>
    </g>
  </g>
</svg>